# This file uses centimeters as units for non-parametric coordinates.

mtllib cristal.mtl
v -10.298762 3.064785 4.199590
v -10.582884 3.064785 3.513649
v -10.517997 3.064785 3.486772
v -10.375777 3.064785 3.830105
v -10.233874 3.064785 4.172712
v -10.869465 3.064785 2.821798
v -10.804566 3.064785 2.794921
v -10.869465 0.012669 2.821798
v -10.804566 0.012669 2.794921
v -10.784818 0.064285 2.842611
v -10.517997 0.012669 3.486772
v -10.517997 0.064285 3.486772
v -10.395537 0.064285 3.782426
v -10.375777 0.012669 3.830105
v -10.395537 3.013172 3.782426
v -10.517997 3.013172 3.486772
v -10.784818 3.013172 2.842611
v -10.741551 0.064285 2.824689
v -10.741551 3.013172 2.824689
v -10.474730 0.064285 3.468861
v -10.352271 0.064285 3.764503
v -10.352271 3.013172 3.764503
v -10.474730 3.013172 3.468861
v -10.356029 0.064285 3.877797
v -10.233874 0.012669 4.172712
v -10.233874 0.064285 4.172712
v -9.969500 0.064285 4.810961
v -9.949751 0.012669 4.858641
v -9.969289 3.013172 4.811476
v -9.949529 3.064785 4.859179
v -10.014417 3.064785 4.886057
v -10.014639 0.012669 4.885518
v -10.233874 3.013172 4.172712
v -10.356029 3.013172 3.877797
v -10.312774 0.064285 3.859874
v -10.312774 3.013172 3.859874
v -10.190608 0.064285 4.154790
v -9.926233 0.064285 4.793039
v -9.926023 3.013172 4.793566
v -10.190608 3.013172 4.154790
vt -3.014444 36.135971
vt 0.085787 43.620575
vt -0.622282 43.913879
vt -2.174067 40.167511
vt -3.722509 36.429260
vt 3.212782 51.169739
vt 2.504713 51.463043
vt 70.316025 -18.147156
vt 70.316025 -51.450729
vt 71.082687 -51.450729
vt 71.082687 -18.147156
vt -71.593369 -51.450729
vt -71.030136 -50.887520
vt -71.593369 -18.147156
vt -63.422226 -51.450729
vt -63.422226 -50.887520
vt -59.930557 -50.887520
vt -59.367325 -51.450729
vt -59.930557 -18.710388
vt -59.367325 -18.147156
vt -63.422226 -18.147156
vt -63.422226 -18.710388
vt -71.030136 -18.710388
vt 71.593369 -50.887520
vt 71.593369 -18.710388
vt 71.082687 -18.710388
vt 71.082687 -50.887520
vt 37.789505 40.883560
vt 36.453243 44.109512
vt 35.981209 43.913879
vt 37.317467 40.687927
vt 33.541809 51.138275
vt 33.069740 50.942947
vt -36.234436 -18.710388
vt -36.234436 -50.887520
vt -35.723763 -50.887520
vt -35.723763 -18.710388
vt -1.094316 44.109512
vt -2.430574 40.883560
vt -1.958540 40.687927
vt 1.817118 51.138275
vt 2.289186 50.942947
vt -59.367325 -51.450729
vt -58.804092 -50.887520
vt -55.320862 -51.450729
vt -55.320862 -50.887520
vt -47.782715 -50.887520
vt -47.219482 -51.450729
vt -47.776550 -18.710388
vt -47.213310 -18.147156
vt -55.320862 -18.147156
vt -6.117106 28.645508
vt -6.825175 28.938812
vt -34.957100 -51.463043
vt -34.957100 -18.159485
vt -35.723763 -18.159485
vt -35.723763 -51.463043
vt -55.320862 -18.710388
vt -58.804092 -18.710388
vt 42.438202 29.660370
vt 39.553474 36.624908
vt 39.081436 36.429260
vt 41.966179 29.465057
vt 38.220558 39.842743
vt 37.748524 39.647430
vt -36.234436 -18.722717
vt -36.234436 -50.899948
vt -35.723763 -50.899948
vt -35.723763 -18.722717
vt -4.194544 36.624908
vt -7.081645 29.654861
vt -6.609580 29.459229
vt -2.861631 39.842743
vt -2.389597 39.647430
vt -63.422226 -50.887520
vt -59.930557 -50.887520
vt -59.930557 -18.710388
vt -63.422226 -18.710388
vt -71.030136 -18.710388
vt -71.030136 -50.887520
vt -0.622282 43.913879
vt 71.593369 -50.887520
vt 71.593369 -18.710388
vt 71.082687 -18.710388
vt 71.082687 -50.887520
vt -55.320862 -50.887520
vt -47.782715 -50.887520
vt -47.776550 -18.710388
vt -55.320862 -18.710388
vt -58.804092 -18.710388
vt -58.804092 -50.887520
vt -3.722509 36.429260
vn 0.000000 -1.000000 0.000000
vn 0.000000 -1.000000 0.000000
vn 0.000000 -1.000000 0.000000
vn 0.000000 -1.000000 0.000000
vn 0.000000 -1.000000 0.000000
vn -0.000000 -1.000000 -0.000000
vn -0.000000 -1.000000 -0.000000
vn -0.000000 -1.000000 -0.000000
vn -0.000000 -1.000000 -0.000000
vn 0.382683 0.000000 0.923880
vn 0.382683 0.000000 0.923880
vn 0.382683 0.000000 0.923880
vn 0.382683 0.000000 0.923880
vn -0.923880 0.000000 0.382683
vn -0.923880 0.000000 0.382683
vn -0.923880 0.000000 0.382683
vn -0.923880 0.000000 0.382683
vn -0.923880 0.000000 0.382683
vn -0.923880 0.000000 0.382683
vn -0.923880 0.000000 0.382683
vn -0.923880 0.000000 0.382683
vn -0.923880 0.000000 0.382683
vn -0.923880 0.000000 0.382683
vn -0.923880 0.000000 0.382683
vn -0.923880 0.000000 0.382683
vn -0.923880 0.000000 0.382683
vn -0.923880 0.000000 0.382683
vn -0.923880 0.000000 0.382683
vn -0.923880 0.000000 0.382683
vn -0.923880 0.000000 0.382683
vn -0.923880 0.000000 0.382683
vn -0.923880 0.000000 0.382683
vn -0.923880 0.000000 0.382683
vn -0.923880 0.000000 0.382683
vn -0.923880 0.000000 0.382683
vn -0.923880 0.000000 0.382683
vn -0.923880 0.000000 0.382683
vn -0.923880 0.000000 0.382683
vn -0.923880 0.000000 0.382683
vn -0.923880 0.000000 0.382683
vn -0.923880 0.000000 0.382683
vn -0.923880 0.000000 0.382683
vn -0.923880 0.000000 0.382683
vn -0.923880 0.000000 0.382683
vn -0.923880 0.000000 0.382683
vn -0.923880 0.000000 0.382683
vn -0.923880 0.000000 0.382683
vn -0.923880 0.000000 0.382683
vn -0.923880 0.000000 0.382683
vn 0.382683 0.000000 0.923880
vn 0.382683 0.000000 0.923880
vn 0.382683 0.000000 0.923880
vn 0.382683 0.000000 0.923880
vn -0.923880 0.000000 0.382683
vn -0.923880 0.000000 0.382683
vn -0.923880 0.000000 0.382683
vn -0.923880 0.000000 0.382683
vn -0.923880 0.000000 0.382683
vn -0.923880 0.000000 0.382683
vn 0.000000 1.000000 -0.000000
vn 0.000000 1.000000 -0.000000
vn 0.000000 1.000000 -0.000000
vn 0.000000 1.000000 -0.000000
vn 0.000000 1.000000 -0.000000
vn 0.000000 1.000000 -0.000000
vn 0.000000 1.000000 -0.000000
vn 0.000000 1.000000 -0.000000
vn -0.382683 0.000000 -0.923880
vn -0.382683 0.000000 -0.923880
vn -0.382683 0.000000 -0.923880
vn -0.382683 0.000000 -0.923880
vn -0.000000 -1.000000 -0.000000
vn -0.000000 -1.000000 -0.000000
vn -0.000000 -1.000000 -0.000000
vn -0.000000 -1.000000 -0.000000
vn -0.000000 -1.000000 -0.000000
vn -0.000000 -1.000000 -0.000000
vn -0.000000 -1.000000 -0.000000
vn -0.000000 -1.000000 -0.000000
vn -0.923880 -0.000000 0.382683
vn -0.923880 -0.000000 0.382683
vn -0.923880 -0.000000 0.382683
vn -0.923880 -0.000000 0.382683
vn -0.923880 -0.000000 0.382683
vn -0.923880 -0.000000 0.382683
vn -0.923880 -0.000000 0.382683
vn -0.923880 -0.000000 0.382683
vn -0.923880 -0.000000 0.382683
vn -0.923880 -0.000000 0.382683
vn -0.923880 -0.000000 0.382683
vn -0.923880 -0.000000 0.382683
vn -0.923880 -0.000000 0.382683
vn -0.923880 -0.000000 0.382683
vn -0.923880 -0.000000 0.382683
vn -0.923880 -0.000000 0.382683
vn -0.923880 -0.000000 0.382683
vn -0.923880 -0.000000 0.382683
vn -0.923880 -0.000000 0.382683
vn -0.923880 -0.000000 0.382683
vn -0.923880 -0.000000 0.382683
vn -0.923880 -0.000000 0.382683
vn -0.923880 -0.000000 0.382683
vn -0.923880 -0.000000 0.382683
vn 0.000000 -1.000000 0.000000
vn 0.000000 -1.000000 0.000000
vn 0.000000 -1.000000 0.000000
vn 0.000000 -1.000000 0.000000
vn -0.382683 0.000190 -0.923880
vn -0.382683 0.000190 -0.923880
vn -0.382683 0.000190 -0.923880
vn -0.382683 0.000190 -0.923880
vn -0.923880 -0.000000 0.382683
vn -0.923880 -0.000000 0.382683
vn -0.923880 -0.000000 0.382683
vn -0.923880 -0.000000 0.382683
vn -0.923880 -0.000000 0.382683
vn -0.923880 -0.000000 0.382683
vn -0.923880 -0.000000 0.382683
vn -0.923880 -0.000000 0.382683
vn -0.923880 -0.000000 0.382683
vn -0.923880 -0.000000 0.382683
vn -0.923880 -0.000000 0.382683
vn -0.923880 -0.000000 0.382683
vn 0.382683 0.000000 0.923880
vn 0.382683 0.000000 0.923880
vn 0.382683 0.000000 0.923880
vn 0.382683 0.000000 0.923880
vn -0.923880 -0.000000 0.382683
vn -0.923880 -0.000000 0.382683
vn -0.923880 -0.000000 0.382683
vn -0.923880 -0.000000 0.382683
vn -0.923880 -0.000000 0.382683
vn -0.923880 -0.000000 0.382683
vn -0.000000 1.000000 0.000000
vn -0.000000 1.000000 0.000000
vn -0.000000 1.000000 0.000000
vn -0.000000 1.000000 0.000000
vn -0.000000 1.000000 0.000000
vn -0.000000 1.000000 0.000000
vn -0.000000 1.000000 0.000000
vn -0.000000 1.000000 0.000000
vn -0.382683 0.000190 -0.923880
vn -0.382683 0.000190 -0.923880
vn -0.382683 0.000190 -0.923880
vn -0.382683 0.000190 -0.923880
vn 0.000000 -1.000000 0.000000
vn 0.000000 -1.000000 0.000000
vn 0.000000 -1.000000 0.000000
vn 0.000000 -1.000000 0.000000
vn 0.000000 -1.000000 -0.000000
vn 0.000000 -1.000000 -0.000000
vn 0.000000 -1.000000 -0.000000
vn 0.000000 -1.000000 -0.000000
s off
usemtl PuertaMedio:Color_000
f 1/1/1 2/2/2 3/3/3 4/4/4 5/5/5
f 2/2/6 6/6/7 7/7/8 3/3/9
f 6/8/10 8/9/11 9/10/12 7/11/13
usemtl PuertaMedio:_DimGray_
f 9/12/14 10/13/15 7/14/16
f 11/15/17 10/13/18 9/12/19
f 11/15/20 12/16/21 10/13/22
f 11/15/23 13/17/24 12/16/25
f 14/18/26 13/17/27 11/15/28
f 13/17/29 14/18/30 15/19/31
f 4/20/32 15/19/33 14/18/34
f 15/19/35 4/20/36 3/21/37
f 15/19/38 3/21/39 16/22/40
f 16/22/41 3/21/42 7/14/43
f 16/22/44 7/14/45 17/23/46
f 17/23/47 7/14/48 10/13/49
f 18/24/50 19/25/51 17/26/52 10/27/53
usemtl PuertaMedio:_Translucent_Glass_Blue_1
f 20/75/54 21/76/55 22/77/56 23/78/57 19/79/58 18/80/59
usemtl PuertaMedio:_DimGray_
f 21/28/60 20/29/61 12/30/62 13/31/63
f 20/29/64 18/32/65 10/33/66 12/30/67
f 22/34/68 21/35/69 13/36/70 15/37/71
f 23/38/72 22/39/73 15/40/74 16/81/75
f 19/41/76 23/38/77 16/81/78 17/42/79
f 14/43/80 24/44/81 4/20/82
f 25/45/83 24/44/84 14/43/85
f 25/45/86 26/46/87 24/44/88
f 25/45/89 27/47/90 26/46/91
f 28/48/92 27/47/93 25/45/94
f 27/47/95 28/48/96 29/49/97
f 30/50/98 29/49/99 28/48/100
f 29/49/101 30/50/102 5/51/103
usemtl PuertaMedio:Color_000
f 31/52/104 1/1/105 5/5/106 30/53/107
f 32/54/108 31/55/109 30/56/110 28/57/111
usemtl PuertaMedio:_DimGray_
f 29/49/112 5/51/113 33/58/114
f 33/58/115 5/51/116 4/20/117
f 33/58/118 4/20/119 34/59/120
f 34/59/121 4/20/122 24/44/123
f 35/82/124 36/83/125 34/84/126 24/85/127
usemtl PuertaMedio:_Translucent_Glass_Blue_1
f 37/86/128 38/87/129 39/88/130 40/89/131 36/90/132 35/91/133
usemtl PuertaMedio:_DimGray_
f 38/60/134 37/61/135 26/62/136 27/63/137
f 37/61/138 35/64/139 24/65/140 26/62/141
f 39/66/142 38/67/143 27/68/144 29/69/145
f 40/70/146 39/71/147 29/72/148 33/92/149
f 36/73/150 40/70/151 33/92/152 34/74/153
v -7.917660 0.012189 7.969518
v -7.917660 3.064304 7.969518
v -7.869219 3.064304 7.932350
v -7.869219 0.012189 7.932350
v -8.373185 3.064304 7.375870
v -8.324745 3.064304 7.338703
v -8.825515 3.064304 6.786389
v -8.777063 3.064304 6.749222
v -8.551320 3.064304 7.043412
v -9.277483 3.064304 6.197365
v -9.229042 3.064304 6.160198
v -9.277483 0.012189 6.197365
v -9.229042 0.012189 6.160198
v -9.184430 2.991023 6.218331
v -9.184430 0.085469 6.218331
v -8.777063 0.012189 6.749222
v -8.777063 0.085469 6.749222
v -8.595932 0.085469 6.985279
v -8.551320 0.012189 7.043412
v -8.595932 2.991023 6.985279
v -8.777063 2.991023 6.749222
v -9.137991 2.991023 6.182697
v -8.730636 2.991023 6.713588
v -8.730636 0.085469 6.713588
v -8.549493 0.085469 6.949645
v -8.549493 2.991023 6.949645
v -9.137991 0.085469 6.182697
v -8.506707 0.085469 7.101557
v -8.325096 0.012189 7.338246
v -8.325096 0.085469 7.338246
v -7.913832 0.085469 7.874217
v -7.913832 2.991023 7.874217
v -8.324745 2.991023 7.338703
v -8.506707 2.991023 7.101557
v -8.460280 0.085469 7.065923
v -8.460280 2.991023 7.065923
v -8.278657 0.085469 7.302612
v -7.867393 0.085469 7.838583
v -7.867393 2.991023 7.838583
v -8.278306 2.991023 7.303069
vt -201.962006 0.000000
vt -201.962006 102.648003
vt -204.014999 102.648003
vt -204.014999 0.000000
vt -144.041000 144.041000
vt -128.720993 164.005997
vt -130.350006 165.255997
vt -145.669998 145.291000
vt -113.508003 183.830994
vt -115.138000 185.082001
vt -122.730003 175.186996
vt -98.307800 203.641006
vt -99.936996 204.891006
vt 201.962006 102.648003
vt 201.962006 0.000000
vt 204.014999 0.000000
vt 204.014999 102.648003
vt -101.712997 -0.000001
vt -99.248901 100.182999
vt -101.712997 102.648003
vt -99.248901 2.464550
vt -76.743698 -0.000001
vt -76.743698 2.464550
vt -66.736801 2.464550
vt -64.272202 -0.000001
vt -66.736801 100.182999
vt -64.272202 102.648003
vt -76.743698 102.648003
vt -76.743698 100.182999
vt -102.999001 204.134003
vt -116.698997 186.279999
vt -101.436996 202.936005
vt 122.791000 178.341003
vt 116.698997 186.279999
vt 115.138000 185.082001
vt 121.228996 177.143005
vt 102.999001 204.134003
vt 101.436996 202.936005
vt 205.983994 2.464550
vt 205.983994 100.182999
vt 204.014999 100.182999
vt 204.014999 2.464550
vt -205.983994 100.182999
vt -205.983994 2.464550
vt -204.014999 2.464550
vt -204.014999 100.182999
vt -122.791000 178.341003
vt -121.228996 177.143005
vt -64.272202 -0.000009
vt -61.807701 2.464540
vt -51.773998 -0.000009
vt -51.773998 2.464540
vt -29.053301 2.464540
vt -26.588800 -0.000009
vt -29.053301 100.182999
vt -26.588800 102.648003
vt -51.754501 102.648003
vt -51.754501 100.182999
vt -61.807701 100.182999
vt 131.899994 166.470001
vt 125.792000 174.429993
vt 124.230003 173.231995
vt 130.337997 165.272003
vt 145.731003 148.445007
vt 144.169998 147.246002
vt -131.912003 166.455002
vt -145.731003 148.445007
vt -144.169998 147.246002
vt -125.792000 174.429993
vt -124.230003 173.231995
vt -115.138000 185.082001
vt -76.743698 2.464550
vt -66.736801 2.464550
vt -66.736801 100.182999
vt -76.743698 100.182999
vt -99.248901 100.182999
vt -99.248901 2.464550
vt 205.983994 2.464550
vt 205.983994 100.182999
vt 204.014999 100.182999
vt 204.014999 2.464550
vt -61.807701 100.182999
vt -61.807701 2.464540
vt -51.773998 2.464540
vt -29.053301 2.464540
vt -29.053301 100.182999
vt -51.754501 100.182999
vt -205.983994 100.182999
vt -205.983994 2.464550
vt -204.014999 2.464550
vt -204.014999 100.182999
vt -130.350006 165.255997
vn -0.608761 -0.000000 -0.793353
vn -0.608761 -0.000000 -0.793353
vn -0.608761 -0.000000 -0.793353
vn -0.608761 -0.000000 -0.793353
vn 0.000000 -1.000000 -0.000000
vn 0.000000 -1.000000 -0.000000
vn 0.000000 -1.000000 -0.000000
vn 0.000000 -1.000000 -0.000000
vn 0.000000 -1.000000 -0.000000
vn 0.000000 -1.000000 -0.000000
vn 0.000000 -1.000000 -0.000000
vn 0.000000 -1.000000 -0.000000
vn 0.000000 -1.000000 -0.000000
vn 0.000000 -1.000000 -0.000000
vn 0.000000 -1.000000 -0.000000
vn 0.000000 -1.000000 -0.000000
vn 0.000000 -1.000000 -0.000000
vn 0.608761 0.000000 0.793353
vn 0.608761 0.000000 0.793353
vn 0.608761 0.000000 0.793353
vn 0.608761 0.000000 0.793353
vn -0.793353 -0.000000 0.608761
vn -0.793353 -0.000000 0.608761
vn -0.793353 -0.000000 0.608761
vn -0.793353 -0.000000 0.608761
vn -0.793353 -0.000000 0.608761
vn -0.793353 -0.000000 0.608761
vn -0.793353 -0.000000 0.608761
vn -0.793353 -0.000000 0.608761
vn -0.793353 -0.000000 0.608761
vn -0.793353 -0.000000 0.608761
vn -0.793353 -0.000000 0.608761
vn -0.793353 -0.000000 0.608761
vn -0.793353 -0.000000 0.608761
vn -0.793353 -0.000000 0.608761
vn -0.793353 -0.000000 0.608761
vn -0.793353 -0.000000 0.608761
vn -0.793353 -0.000000 0.608761
vn -0.793353 -0.000000 0.608761
vn -0.793353 -0.000000 0.608761
vn -0.793353 -0.000000 0.608761
vn -0.793353 -0.000000 0.608761
vn -0.793353 -0.000000 0.608761
vn -0.793353 -0.000000 0.608761
vn -0.793353 -0.000000 0.608761
vn -0.793353 -0.000000 0.608761
vn -0.793353 -0.000000 0.608761
vn -0.793353 -0.000000 0.608761
vn -0.793353 -0.000000 0.608761
vn -0.793353 -0.000000 0.608761
vn -0.793353 -0.000000 0.608761
vn -0.793353 -0.000000 0.608761
vn -0.793353 -0.000000 0.608761
vn -0.793353 -0.000000 0.608761
vn -0.793353 -0.000000 0.608761
vn -0.793353 -0.000000 0.608761
vn -0.793353 -0.000000 0.608761
vn 0.000000 -1.000000 -0.000000
vn 0.000000 -1.000000 -0.000000
vn 0.000000 -1.000000 -0.000000
vn 0.000000 -1.000000 -0.000000
vn -0.793353 -0.000000 0.608761
vn -0.793353 -0.000000 0.608761
vn -0.793353 -0.000000 0.608761
vn -0.793353 -0.000000 0.608761
vn -0.793353 -0.000000 0.608761
vn -0.793353 -0.000000 0.608761
vn -0.000000 1.000000 0.000000
vn -0.000000 1.000000 0.000000
vn -0.000000 1.000000 0.000000
vn -0.000000 1.000000 0.000000
vn -0.000000 1.000000 0.000000
vn -0.000000 1.000000 0.000000
vn -0.000000 1.000000 0.000000
vn -0.000000 1.000000 0.000000
vn 0.608761 0.000000 0.793353
vn 0.608761 0.000000 0.793353
vn 0.608761 0.000000 0.793353
vn 0.608761 0.000000 0.793353
vn -0.608761 0.000000 -0.793353
vn -0.608761 0.000000 -0.793353
vn -0.608761 0.000000 -0.793353
vn -0.608761 0.000000 -0.793353
vn -0.000000 -1.000000 -0.000000
vn -0.000000 -1.000000 -0.000000
vn -0.000000 -1.000000 -0.000000
vn -0.000000 -1.000000 -0.000000
vn -0.793353 -0.000000 0.608761
vn -0.793353 -0.000000 0.608761
vn -0.793353 -0.000000 0.608761
vn -0.793353 -0.000000 0.608761
vn -0.793353 -0.000000 0.608761
vn -0.793353 -0.000000 0.608761
vn -0.793353 -0.000000 0.608761
vn -0.793353 -0.000000 0.608761
vn -0.793353 -0.000000 0.608761
vn -0.793353 -0.000000 0.608761
vn -0.793353 -0.000000 0.608761
vn -0.793353 -0.000000 0.608761
vn -0.793353 -0.000000 0.608761
vn -0.793353 -0.000000 0.608761
vn -0.793353 -0.000000 0.608761
vn -0.793353 -0.000000 0.608761
vn -0.793353 -0.000000 0.608761
vn -0.793353 -0.000000 0.608761
vn -0.793353 -0.000000 0.608761
vn -0.793353 -0.000000 0.608761
vn -0.793353 -0.000000 0.608761
vn -0.793353 -0.000000 0.608761
vn -0.793353 -0.000000 0.608761
vn -0.793353 -0.000000 0.608761
vn -0.793353 -0.000000 0.608761
vn -0.793353 -0.000000 0.608761
vn -0.793353 -0.000000 0.608761
vn -0.793353 -0.000000 0.608761
vn -0.793353 -0.000000 0.608761
vn -0.793353 -0.000000 0.608761
vn -0.793353 -0.000000 0.608761
vn -0.793353 -0.000000 0.608761
vn -0.793353 -0.000000 0.608761
vn -0.793353 -0.000000 0.608761
vn -0.793353 -0.000000 0.608761
vn -0.793353 -0.000000 0.608761
vn 0.608761 -0.000000 0.793353
vn 0.608761 -0.000000 0.793353
vn 0.608761 -0.000000 0.793353
vn 0.608761 -0.000000 0.793353
vn -0.793353 -0.000000 0.608761
vn -0.793353 -0.000000 0.608761
vn -0.793353 -0.000000 0.608761
vn -0.793353 -0.000000 0.608761
vn -0.793353 -0.000000 0.608761
vn -0.793353 -0.000000 0.608761
vn -0.000000 1.000000 0.000000
vn -0.000000 1.000000 0.000000
vn -0.000000 1.000000 0.000000
vn -0.000000 1.000000 0.000000
vn -0.000000 1.000000 0.000000
vn -0.000000 1.000000 0.000000
vn -0.000000 1.000000 0.000000
vn -0.000000 1.000000 0.000000
vn -0.608761 -0.000000 -0.793353
vn -0.608761 -0.000000 -0.793353
vn -0.608761 -0.000000 -0.793353
vn -0.608761 -0.000000 -0.793353
vn 0.000000 -1.000000 -0.000000
vn 0.000000 -1.000000 -0.000000
vn 0.000000 -1.000000 -0.000000
vn 0.000000 -1.000000 -0.000000
vn 0.000000 -1.000000 -0.000000
vn 0.000000 -1.000000 -0.000000
vn 0.000000 -1.000000 -0.000000
vn 0.000000 -1.000000 -0.000000
s off
usemtl PuertaMedio:Color_000
f 41/93/154 42/94/155 43/95/156 44/96/157
f 42/97/158 45/98/159 46/99/160 43/100/161
f 45/98/162 47/101/163 48/102/164 49/103/165 46/99/166
f 47/101/167 50/104/168 51/105/169 48/102/170
f 50/106/171 52/107/172 53/108/173 51/109/174
usemtl PuertaMedio:_DimGray_
f 53/110/175 54/111/176 51/112/177
f 53/110/178 55/113/179 54/111/180
f 56/114/181 55/113/182 53/110/183
f 56/114/184 57/115/185 55/113/186
f 56/114/187 58/116/188 57/115/189
f 59/117/190 58/116/191 56/114/192
f 58/116/193 59/117/194 60/118/195
f 49/119/196 60/118/197 59/117/198
f 60/118/199 49/119/200 48/120/201
f 60/118/202 48/120/203 61/121/204
f 61/121/205 48/120/206 51/112/207
f 61/121/208 51/112/209 54/111/210
f 62/122/211 63/123/212 61/163/213 54/124/214
usemtl PuertaMedio:_Translucent_Glass_Blue_1
f 64/164/215 65/165/216 66/166/217 63/167/218 62/168/219 67/169/220
usemtl PuertaMedio:_DimGray_
f 65/125/221 64/126/222 57/127/223 58/128/224
f 64/126/225 67/129/226 55/130/227 57/127/228
f 67/131/229 62/132/230 54/133/231 55/134/232
f 66/135/233 65/136/234 58/137/235 60/138/236
f 63/123/237 66/139/238 60/140/239 61/163/240
f 59/141/241 68/142/242 49/119/243
f 69/143/244 68/142/245 59/141/246
f 69/143/247 70/144/248 68/142/249
f 69/143/250 71/145/251 70/144/252
f 44/146/253 71/145/254 69/143/255
f 71/145/256 44/146/257 72/147/258
f 43/148/259 72/147/260 44/146/261
f 72/147/262 43/148/263 46/149/264
f 72/147/265 46/149/266 73/150/267
f 73/150/268 46/149/269 49/119/270
f 73/150/271 49/119/272 74/151/273
f 74/151/274 49/119/275 68/142/276
f 75/170/277 76/171/278 74/172/279 68/173/280
usemtl PuertaMedio:_Translucent_Glass_Blue_1
f 76/174/281 75/175/282 77/176/283 78/177/284 79/178/285 80/179/286
usemtl PuertaMedio:_DimGray_
f 77/152/287 75/153/288 68/154/289 70/155/290
f 78/156/291 77/152/292 70/155/293 71/157/294
f 79/180/295 78/181/296 71/182/297 72/183/298
f 80/158/299 79/159/300 72/160/301 73/184/302
f 76/161/303 80/158/304 73/184/305 74/162/306
