# Alias OBJ Model File
# Exported from SketchUp, (c) 2000-2012 Trimble Navigation Limited
# File units = meters

mtllib MarcosIzq.mtl

g Mesh1 Model

usemtl _DimGray_
v 1.24183 0.0440921 -8.03146
vt 166.173 1.73591
vn 0.382683 0 0.92388
v 1.24183 2.56316 -8.03146
vt 166.173 100.912
v 1.20487 2.56316 -8.01615
vt 164.599 100.912
v 1.20487 0.0440921 -8.01615
vt 164.599 1.73591
f 1/1/1 2/2/1 3/3/1 4/4/1 

vt -47.4358 315.597
vn -3.03984e-16 -1 -7.33882e-16
vt -48.8908 316.199
v 1.57437 2.56316 -7.22863
vt -61.983 284.592
v 1.53741 2.56316 -7.21332
vt -60.5281 283.989
f 3/5/2 2/6/2 5/7/2 6/8/2 

vt -166.173 100.912
vn -0.382683 2.74172e-17 -0.92388
v 1.57437 0.0440921 -7.22863
vt -166.173 1.73591
v 1.53741 0.0440921 -7.21332
vt -164.599 1.73591
vt -164.599 100.912
f 5/9/3 7/10/3 8/11/3 6/12/3 

vt 61.983 284.592
vn 1.93823e-17 1 -8.02841e-18
v 1.46976 0.0440921 -7.48118
vt 57.8644 294.535
v 1.4328 0.0440921 -7.46588
vt 56.4095 293.932
vt 60.5281 283.989
f 7/13/4 9/14/4 10/15/4 8/16/4 

vt 48.8908 316.199
vt 47.4358 315.597
f 9/14/4 1/17/4 4/18/4 10/15/4 

v 1.4328 1.11862e-18 -7.46588
vt -249.971 3.49719e-15
vn -0.92388 2.09793e-17 0.382683
vt -249.971 1.73591
vt -273.42 1.73591
f 11/19/5 10/20/5 4/21/5

vt -239.209 1.73591
f 11/19/5 8/22/5 10/20/5

v 1.55429 1.11862e-18 -7.17259
vt -237.473 3.49719e-15
f 12/23/5 8/22/5 11/19/5

vt -239.209 100.912
f 8/22/5 12/23/5 6/24/5

v 1.55429 2.60725 -7.17259
vt -237.473 102.648
f 13/25/5 6/24/5 12/23/5

v 1.188 2.60725 -8.05689
vt -275.156 102.648
f 6/24/5 13/25/5 14/26/5

vt -273.42 100.912
f 6/24/5 14/26/5 3/27/5

f 3/27/5 14/26/5 4/21/5

v 1.188 1.11862e-18 -8.05689
vt -275.156 3.49719e-15
f 15/28/5 4/21/5 14/26/5

f 11/19/5 4/21/5 15/28/5

g Mesh2 Model

v 2.57651 2.54465 -5.15458
vt -101.437 202.936
vn 2.85196e-09 -1 -6.19279e-09
v 2.61618 2.54465 -5.18502
vt -102.999 204.134
v 3.1189 2.54465 -4.52986
vt -122.791 178.341
v 3.07923 2.54465 -4.49942
vt -121.229 177.143
f 16/29/6 17/30/6 18/31/6 19/32/6 

v 2.61618 0.0625996 -5.18502
vt 205.984 2.46455
vn 0.608761 3.54876e-17 0.793353
vt 205.984 100.183
vt 204.015 100.183
v 2.57651 0.0625996 -5.15458
vt 204.015 2.46455
f 20/33/7 17/34/7 16/35/7 21/36/7 

v 2.5384 3.6333e-09 -5.20424
vt -101.713 -1.08769e-06
vn -0.793353 -6.03257e-09 0.608761
vt -99.2489 2.46455
vt -99.2489 100.183
f 22/37/8 21/38/8 16/39/8

v 2.9245 3.6333e-09 -4.70107
vt -76.7437 -1.08769e-06
f 23/40/8 21/38/8 22/37/8

v 2.9245 0.0625996 -4.70107
vt -76.7437 2.46455
f 23/40/8 24/41/8 21/38/8

v 3.07923 0.0625996 -4.49942
vt -66.7368 2.46455
f 23/40/8 25/42/8 24/41/8

v 3.11734 1.66881e-09 -4.44976
vt -64.2722 -1.16504e-06
f 26/43/8 25/42/8 23/40/8

vt -66.7368 100.183
f 25/42/8 26/43/8 19/44/8

v 3.11734 2.60725 -4.44976
vt -64.2722 102.648
f 27/45/8 19/44/8 26/43/8

v 2.5384 2.60725 -5.20424
vt -101.713 102.648
f 19/44/8 27/45/8 28/46/8

f 19/44/8 28/46/8 16/39/8

f 22/37/8 16/39/8 28/46/8

vt -205.984 100.183
vn -0.608761 6.85358e-16 -0.793353
v 3.1189 0.0625996 -4.52986
vt -205.984 2.46455
vt -204.015 2.46455
vt -204.015 100.183
f 18/47/9 29/48/9 25/49/9 19/50/9 

vt 122.791 178.341
vn -4.78596e-09 1 3.67239e-09
v 2.96416 0.0625996 -4.73151
vt 116.699 186.28
vt 115.138 185.082
vt 121.229 177.143
f 29/51/10 30/52/10 24/53/10 25/54/10 

vt 102.999 204.134
vt 101.437 202.936
f 30/52/10 20/55/10 21/56/10 24/53/10 

