# Alias OBJ Model File
# Exported from SketchUp, (c) 2000-2012 Trimble Navigation Limited
# File units = meters

mtllib VidriosIzq.mtl

g Mesh1 Model

usemtl _Translucent_Glass_Blue_1
v 2.96416 0.0625996 -4.73151
vt -76.7437 2.46455
vn -0.793353 -7.47576e-09 0.608761
v 3.1189 0.0625996 -4.52986
vt -66.7368 2.46455
v 3.1189 2.54465 -4.52986
vt -66.7368 100.183
v 2.61618 2.54465 -5.18502
vt -99.2489 100.183
v 2.61618 0.0625996 -5.18502
vt -99.2489 2.46455
f 1/1/1 2/2/1 3/3/1 4/4/1 5/5/1 

g Mesh2 Model

v 1.46976 0.0440921 -7.48118
vt -249.971 1.73591
vn -0.92388 6.51881e-17 0.382683
v 1.57437 0.0440921 -7.22863
vt -239.209 1.73591
v 1.57437 2.56316 -7.22863
vt -239.209 100.912
v 1.24183 2.56316 -8.03146
vt -273.42 100.912
v 1.24183 0.0440921 -8.03146
vt -273.42 1.73591
f 6/6/2 7/7/2 8/8/2 9/9/2 10/10/2 

