# This file uses centimeters as units for non-parametric coordinates.

mtllib cristales.mtl
v -9.968816 0.030660 4.079324
v -9.692143 0.039826 4.724287
v -9.693151 2.993836 4.683365
v -10.097895 2.980426 3.739851
v -10.096666 0.026425 3.781306
vt -225.001007 1.735910
vt -201.766998 1.735910
vt -201.748001 100.912003
vt -235.737000 100.912003
vt -235.737000 1.735910
vn -0.919026 0.005149 0.394163
vn -0.919026 0.005149 0.394163
vn -0.919026 0.005149 0.394163
vn -0.919026 0.005149 0.394163
vn -0.919026 0.005149 0.394163
s off
usemtl VidriosIzq:_Translucent_Glass_Blue_1
f 1/1/1 2/2/2 3/3/3 4/4/4 5/5/5
v -10.249695 0.019292 3.407240
v -10.120066 0.019292 3.713190
v -10.120066 2.957299 3.713190
v -10.532137 2.957299 2.740608
v -10.532137 0.019292 2.740608
vt -249.970993 1.735910
vt -239.209000 1.735910
vt -239.209000 100.912003
vt -273.420013 100.912003
vt -273.420013 1.735910
vn -0.920765 0.000000 0.390117
vn -0.920765 0.000000 0.390117
vn -0.920765 0.000000 0.390117
vn -0.920765 0.000000 0.390117
vn -0.920765 0.000000 0.390117
s off
f 6/6/6 7/7/7 8/8/8 9/9/9 10/10/10
v -8.549609 0.045673 6.596265
v -8.363430 0.045673 6.830311
v -8.363430 2.947234 6.830311
v -8.968291 2.947234 6.069894
v -8.968291 0.045673 6.069894
vt -76.743698 2.464550
vt -66.736801 2.464550
vt -66.736801 100.182999
vt -99.248901 100.182999
vt -99.248901 2.464550
vn -0.782608 -0.000000 0.622514
vn -0.782608 -0.000000 0.622514
vn -0.782608 -0.000000 0.622514
vn -0.782608 -0.000000 0.622514
vn -0.782608 -0.000000 0.622514
s off
f 11/11/11 12/12/12 13/13/13 14/14/14 15/15/15
v -8.294808 2.950964 6.929082
v -8.294808 0.051323 6.929082
v -8.116169 0.051323 7.169927
v -7.711660 0.051323 7.715311
v -7.711660 2.950964 7.715311
vt -61.807701 100.182999
vt -61.807701 2.464540
vt -51.773998 2.464540
vt -29.053301 2.464540
vt -29.053301 100.182999
vn -0.803188 -0.000000 0.595726
vn -0.803188 -0.000000 0.595726
vn -0.803188 -0.000000 0.595726
vn -0.803188 -0.000000 0.595726
vn -0.803188 -0.000000 0.595726
s off
f 16/16/16 17/17/17 18/18/18 19/19/19 20/20/20
